<svg width="194" height="239" viewBox="0 0 194 239" fill="none" xmlns="http://www.w3.org/2000/svg">
<path d="M2.0033 145.129C2.01095 80.6223 73 76 73 76V169.119C73 223.496 2.00336 237 2.00336 237C2.00336 237 1.99565 209.635 2.0033 145.129Z" fill="url(#paint0_linear_137_145)" stroke="white" stroke-width="3"/>
<path d="M97.9956 101.686C121.97 66.5129 192 77.6865 192 77.6865C192 77.6865 192 100.383 176.5 123.687C152.926 159.13 83 150.187 83 150.187C83 150.187 83 123.687 97.9956 101.686Z" fill="url(#paint1_linear_137_145)"/>
<path d="M191.764 79.1678C191.921 78.1803 192.079 77.1928 192.236 76.2053C187.231 75.4687 182.008 75.0251 176.992 74.7593C148.928 73.8054 115.24 75.7361 96.7561 100.842C86.9493 115.425 82.2048 132.733 81.5 150.187V151.507L82.8097 151.674C112.423 154.088 145.509 153.498 169.941 133.471C172.898 130.833 175.539 127.841 177.749 124.517C184.126 114.929 188.721 104.236 191.353 93.0293C192.507 88.0214 193.35 82.9739 193.5 77.6865C192.5 77.6865 191.5 77.6865 190.5 77.6865C190.365 82.4878 189.549 87.5327 188.432 92.3453C185.882 103.204 181.426 113.573 175.251 122.856C173.19 125.956 170.724 128.751 167.943 131.233C145.033 150.191 112.154 151.139 83.1903 148.699L84.5 150.187C85.1653 133.505 89.8312 116.454 99.235 102.531C116.234 79.1336 149.154 76.7084 176.837 77.7552C181.758 78.0144 186.974 78.4626 191.764 79.1678ZM192.236 76.2053L191.764 79.1678L190.5 77.6865H193.5V76.4069L192.236 76.2053Z" fill="white"/>
<path d="M97.9956 210.698C121.97 245.872 192 234.698 192 234.698C192 234.698 192 212.002 176.5 188.698C152.926 153.255 83 162.198 83 162.198C83 162.198 83 188.698 97.9956 210.698Z" fill="url(#paint2_linear_137_145)"/>
<path d="M191.764 233.217C191.921 234.204 192.079 235.192 192.236 236.18C187.231 236.916 182.008 237.36 176.992 237.626C148.928 238.579 115.24 236.649 96.7561 211.543C86.9493 196.959 82.2048 179.651 81.5 162.198V160.878L82.8097 160.71C112.423 158.297 145.509 158.887 169.941 178.913C172.898 181.552 175.539 184.543 177.749 187.868C184.126 197.456 188.721 208.148 191.353 219.355C192.507 224.363 193.35 229.411 193.5 234.698C192.5 234.698 191.5 234.698 190.5 234.698C190.365 229.897 189.549 224.852 188.432 220.039C185.882 209.181 181.426 198.812 175.251 189.529C173.19 186.429 170.724 183.633 167.943 181.151C145.033 162.194 112.154 161.246 83.1903 163.686L84.5 162.198C85.1653 178.88 89.8312 195.931 99.235 209.854C116.234 233.251 149.154 235.676 176.837 234.63C181.758 234.37 186.974 233.922 191.764 233.217ZM192.236 236.18L191.764 233.217L190.5 234.698H193.5V235.978L192.236 236.18Z" fill="white"/>
<path d="M135.247 5.43485C103.308 -0.229301 2.00128 2.81932 2.00128 2.81932C2.00128 2.81932 0.988405 66 55.9025 66H191.64C191.64 66 200.079 16.9322 135.247 5.43485Z" fill="url(#paint3_linear_137_145)" stroke="white" stroke-width="3"/>
<defs>
<linearGradient id="paint0_linear_137_145" x1="37.5" y1="76" x2="37.5" y2="237" gradientUnits="userSpaceOnUse">
<stop stop-color="#AA61FF"/>
<stop offset="1" stop-color="#8A4DD1"/>
</linearGradient>
<linearGradient id="paint1_linear_137_145" x1="137.5" y1="76" x2="137.5" y2="151.192" gradientUnits="userSpaceOnUse">
<stop stop-color="#AA61FF"/>
<stop offset="1" stop-color="#8A4DD1"/>
</linearGradient>
<linearGradient id="paint2_linear_137_145" x1="137.5" y1="161.192" x2="137.5" y2="236.385" gradientUnits="userSpaceOnUse">
<stop stop-color="#AA61FF"/>
<stop offset="1" stop-color="#8A4DD1"/>
</linearGradient>
<linearGradient id="paint3_linear_137_145" x1="97" y1="2" x2="97" y2="66" gradientUnits="userSpaceOnUse">
<stop stop-color="#AA61FF"/>
<stop offset="1" stop-color="#8A4DD1"/>
</linearGradient>
</defs>
</svg>
